<?xml version="1.0" standalone="no"?>
<!DOCTYPE svg PUBLIC "-//W3C//DTD SVG 20010904//EN"
 "http://www.w3.org/TR/2001/REC-SVG-20010904/DTD/svg10.dtd">
<svg version="1.0" xmlns="http://www.w3.org/2000/svg"
 width="3130.000000pt" height="3799.000000pt" viewBox="0 0 3130.000000 3799.000000"
 preserveAspectRatio="xMidYMid meet">

<g transform="translate(0.000000,3799.000000) scale(0.100000,-0.100000)"
fill="#852698" stroke="none">
<path d="M14630 37130 c-2353 -126 -4535 -850 -6455 -2144 -1673 -1128 -3053
-2631 -4034 -4396 -129 -232 -391 -757 -496 -995 -620 -1406 -956 -2790 -1065
-4385 -18 -254 -24 -987 -11 -1275 73 -1642 427 -3165 1077 -4630 488 -1101
1741 -3237 3291 -5613 1158 -1775 2278 -3405 4959 -7212 1868 -2652 2653
-3783 3421 -4927 l303 -452 31 9 c18 5 32 11 33 12 1 2 10 28 19 58 25 84 166
289 274 400 51 52 111 122 133 155 23 33 60 87 83 120 l43 60 -24 10 c-22 10
-19 16 134 240 797 1169 1381 2006 3009 4320 2870 4078 3933 5627 5185 7560
1283 1980 2477 4009 2940 4995 933 1984 1333 4144 1175 6335 -255 3531 -1964
6770 -4750 9000 -1913 1531 -4247 2478 -6685 2710 -478 45 -545 48 -1505 50
-511 2 -1000 -1 -1085 -5z m1596 -5254 c877 -91 1644 -317 2399 -705 1342
-691 2397 -1828 2998 -3231 700 -1635 700 -3471 0 -5128 -143 -338 -373 -762
-587 -1081 -990 -1475 -2571 -2492 -4329 -2786 -395 -66 -664 -88 -1077 -88
-513 -1 -927 44 -1421 154 -1806 401 -3343 1535 -4253 3136 -465 820 -735
1678 -833 2653 -25 249 -25 901 0 1150 53 528 150 993 303 1462 494 1508 1495
2757 2869 3578 181 108 577 308 777 393 693 293 1347 447 2163 511 129 10 848
-3 991 -18z"/>
</g>
</svg>
