<?xml version="1.0" standalone="no"?>
<!DOCTYPE svg PUBLIC "-//W3C//DTD SVG 20010904//EN"
 "http://www.w3.org/TR/2001/REC-SVG-20010904/DTD/svg10.dtd">
<svg version="1.0" xmlns="http://www.w3.org/2000/svg"
 width="256.000000pt" height="248.000000pt" viewBox="0 0 256.000000 248.000000"
 preserveAspectRatio="xMidYMid meet">

<g transform="translate(0.000000,248.000000) scale(0.100000,-0.100000)"
fill="#852698" stroke="none">
<path d="M1163 2313 c15 -2 37 -2 50 0 12 2 0 4 -28 4 -27 0 -38 -2 -22 -4z"/>
<path d="M1290 2316 c0 -2 9 -6 20 -9 11 -3 18 -1 14 4 -5 9 -34 13 -34 5z"/>
<path d="M1038 2293 c7 -3 16 -2 19 1 4 3 -2 6 -13 5 -11 0 -14 -3 -6 -6z"/>
<path d="M1331 2274 c0 -11 3 -14 6 -6 3 7 2 16 -1 19 -3 4 -6 -2 -5 -13z"/>
<path d="M958 2273 c7 -3 16 -2 19 1 4 3 -2 6 -13 5 -11 0 -14 -3 -6 -6z"/>
<path d="M1167 2214 c-2 -2 -37 -8 -78 -14 -73 -11 -203 -56 -269 -94 -19 -11
-39 -21 -45 -22 -6 -1 -24 -13 -40 -28 -15 -14 -31 -23 -36 -20 -5 3 -9 -2 -9
-10 0 -9 -4 -16 -8 -16 -5 0 -40 -31 -78 -69 -76 -77 -79 -80 -114 -131 -14
-19 -28 -37 -31 -40 -25 -20 -84 -170 -110 -277 -30 -122 -31 -135 -26 -283 5
-174 17 -230 76 -355 53 -114 127 -218 208 -296 67 -65 185 -149 237 -169 23
-9 25 -12 14 -30 -7 -11 -15 -20 -19 -20 -3 0 -4 -14 -1 -30 6 -41 19 -38 26
8 18 121 19 124 67 136 20 4 29 1 33 -10 4 -10 14 -14 26 -11 28 7 33 -7 20
-49 -10 -30 -10 -37 5 -48 16 -12 16 -13 1 -29 -25 -25 -18 -101 9 -104 16 -1
16 -1 3 3 -26 8 -25 80 1 93 10 6 21 8 23 5 12 -11 131 -24 223 -24 130 1 164
5 198 18 15 7 31 11 35 10 4 -1 14 1 22 4 8 3 35 11 60 18 25 7 64 21 87 31
23 10 45 19 48 19 10 0 139 89 174 120 18 16 37 30 41 30 6 0 72 76 127 146
65 84 119 195 154 319 28 96 37 308 19 413 -15 89 -55 217 -86 271 -13 24 -24
48 -24 53 0 5 -4 14 -10 21 -23 28 -80 108 -80 111 0 3 -28 31 -62 63 -34 32
-73 68 -85 81 -13 12 -27 22 -32 22 -4 0 -16 8 -27 19 -19 17 -98 35 -88 20 2
-4 -3 -10 -12 -13 -8 -3 -12 -2 -9 4 3 6 -1 7 -10 4 -9 -4 -26 2 -38 12 -12
10 -5 1 16 -20 20 -20 37 -44 37 -52 0 -20 -32 -32 -38 -14 -3 8 -23 32 -45
54 -22 23 -34 33 -28 24 9 -12 9 -22 2 -36 -13 -25 -41 -48 -41 -34 0 6 5 14
10 17 6 3 10 12 10 18 -1 7 -10 1 -21 -12 -11 -13 -18 -30 -15 -38 3 -8 2 -21
-3 -31 -5 -9 -14 -28 -20 -42 -9 -22 -91 -156 -200 -327 -18 -29 -39 -53 -46
-53 -7 0 -16 -7 -19 -16 -3 -8 -2 -13 3 -9 5 3 11 0 13 -6 4 -11 58 2 308 74
191 55 238 60 195 19 -10 -9 -15 -11 -11 -4 4 7 2 12 -6 12 -18 0 -48 -52 -48
-82 0 -14 -17 -49 -38 -79 -21 -30 -104 -149 -185 -265 -81 -116 -167 -232
-191 -257 -23 -25 -105 -143 -182 -261 -120 -186 -164 -242 -164 -208 0 5 36
78 80 163 44 85 141 273 214 419 109 215 132 269 122 281 -10 14 -27 11 -156
-28 -308 -94 -350 -104 -350 -82 0 14 63 160 90 209 33 62 171 346 258 533 36
77 41 95 39 154 -1 43 -6 68 -14 71 -20 6 -15 19 9 25 12 4 20 8 17 11 -6 6
-107 15 -112 10z m-122 -65 c0 -9 -33 -25 -90 -45 -158 -53 -229 -102 -360
-248 -65 -72 -155 -204 -155 -226 0 -6 -5 -18 -10 -28 -6 -9 -24 -55 -40 -102
-23 -65 -30 -78 -31 -55 -2 46 0 55 31 130 109 264 239 406 481 525 140 70
174 79 174 49z m-688 -771 c-3 -7 -5 -2 -5 12 0 14 2 19 5 13 2 -7 2 -19 0
-25z"/>
<path d="M1388 2193 c6 -2 18 -2 25 0 6 3 1 5 -13 5 -14 0 -19 -2 -12 -5z"/>
<path d="M679 2139 l-24 -20 28 17 c15 9 27 18 27 20 0 8 -8 4 -31 -17z"/>
<path d="M1825 2124 l-30 -26 33 22 c18 12 40 19 48 16 8 -3 12 -2 9 4 -10 16
-28 11 -60 -16z"/>
<path d="M1675 2130 c-13 -5 -14 -9 -5 -9 8 0 24 4 35 9 13 5 14 9 5 9 -8 0
-24 -4 -35 -9z"/>
<path d="M629 2103 c-13 -16 -12 -17 4 -4 9 7 17 15 17 17 0 8 -8 3 -21 -13z"/>
<path d="M1596 2107 c3 -10 9 -15 12 -12 3 3 0 11 -7 18 -10 9 -11 8 -5 -6z"/>
<path d="M1940 2096 c0 -2 8 -10 18 -17 15 -13 16 -12 3 4 -13 16 -21 21 -21
13z"/>
<path d="M584 2068 l-19 -23 23 19 c21 18 27 26 19 26 -2 0 -12 -10 -23 -22z"/>
<path d="M514 2008 l-29 -33 33 29 c17 17 32 31 32 33 0 8 -8 1 -36 -29z"/>
<path d="M2040 2005 c19 -19 36 -35 39 -35 3 0 -10 16 -29 35 -19 19 -36 35
-39 35 -3 0 10 -16 29 -35z"/>
<path d="M454 1938 c-44 -51 -57 -68 -52 -68 3 0 22 20 42 45 38 46 45 63 10
23z"/>
<path d="M2105 1930 c10 -11 20 -20 23 -20 3 0 -3 9 -13 20 -10 11 -20 20 -23
20 -3 0 3 -9 13 -20z"/>
<path d="M2130 1896 c0 -2 8 -10 18 -17 15 -13 16 -12 3 4 -13 16 -21 21 -21
13z"/>
<path d="M330 1759 c-7 -11 -10 -23 -7 -25 2 -2 9 7 15 21 14 30 7 33 -8 4z"/>
<path d="M296 1695 c-9 -26 -7 -32 5 -12 6 10 9 21 6 23 -2 3 -7 -2 -11 -11z"/>
<path d="M2260 1685 c0 -5 5 -17 10 -25 5 -8 10 -10 10 -5 0 6 -5 17 -10 25
-5 8 -10 11 -10 5z"/>
<path d="M2311 1544 c0 -11 3 -14 6 -6 3 7 2 16 -1 19 -3 4 -6 -2 -5 -13z"/>
<path d="M226 1484 c-4 -20 -5 -38 -3 -40 3 -3 8 11 11 32 4 20 5 38 3 40 -3
3 -8 -11 -11 -32z"/>
<path d="M2321 1504 c0 -11 3 -14 6 -6 3 7 2 16 -1 19 -3 4 -6 -2 -5 -13z"/>
<path d="M2331 1464 c0 -11 3 -14 6 -6 3 7 2 16 -1 19 -3 4 -6 -2 -5 -13z"/>
<path d="M2342 1410 c0 -14 2 -19 5 -12 2 6 2 18 0 25 -3 6 -5 1 -5 -13z"/>
<path d="M212 1390 c0 -14 2 -19 5 -12 2 6 2 18 0 25 -3 6 -5 1 -5 -13z"/>
<path d="M2353 1300 c0 -25 2 -35 4 -22 2 12 2 32 0 45 -2 12 -4 2 -4 -23z"/>
<path d="M204 1245 c0 -49 1 -71 3 -48 2 23 2 64 0 90 -2 26 -3 8 -3 -42z"/>
<path d="M2353 1195 c0 -27 2 -38 4 -22 2 15 2 37 0 50 -2 12 -4 0 -4 -28z"/>
<path d="M2342 1085 c0 -16 2 -22 5 -12 2 9 2 23 0 30 -3 6 -5 -1 -5 -18z"/>
<path d="M221 1034 c0 -11 3 -14 6 -6 3 7 2 16 -1 19 -3 4 -6 -2 -5 -13z"/>
<path d="M2332 1030 c0 -14 2 -19 5 -12 2 6 2 18 0 25 -3 6 -5 1 -5 -13z"/>
<path d="M231 984 c0 -11 3 -14 6 -6 3 7 2 16 -1 19 -3 4 -6 -2 -5 -13z"/>
<path d="M2321 984 c0 -11 3 -14 6 -6 3 7 2 16 -1 19 -3 4 -6 -2 -5 -13z"/>
<path d="M2281 864 c0 -11 3 -14 6 -6 3 7 2 16 -1 19 -3 4 -6 -2 -5 -13z"/>
<path d="M350 696 c0 -2 8 -10 18 -17 15 -13 16 -12 3 4 -13 16 -21 21 -21 13z"/>
<path d="M390 636 c0 -2 8 -10 18 -17 15 -13 16 -12 3 4 -13 16 -21 21 -21 13z"/>
<path d="M2140 610 c-12 -16 -19 -30 -16 -30 2 0 14 14 26 30 12 17 19 30 16
30 -2 0 -14 -13 -26 -30z"/>
<path d="M420 596 c0 -2 8 -10 18 -17 15 -13 16 -12 3 4 -13 16 -21 21 -21 13z"/>
<path d="M2040 493 l-65 -68 68 65 c62 60 72 70 64 70 -1 0 -32 -30 -67 -67z"/>
<path d="M510 495 c30 -30 57 -55 59 -55 3 0 -19 25 -49 55 -30 30 -57 55 -59
55 -3 0 19 -25 49 -55z"/>
<path d="M605 410 c10 -11 20 -20 23 -20 3 0 -3 9 -13 20 -10 11 -20 20 -23
20 -3 0 3 -9 13 -20z"/>
<path d="M1939 403 c-13 -16 -12 -17 4 -4 16 13 21 21 13 21 -2 0 -10 -8 -17
-17z"/>
<path d="M670 366 c0 -2 8 -10 18 -17 15 -13 16 -12 3 4 -13 16 -21 21 -21 13z"/>
<path d="M1860 349 c-22 -18 -22 -19 -3 -10 12 6 25 16 28 21 9 15 3 12 -25
-11z"/>
<path d="M1804 314 c-18 -14 -18 -15 4 -4 12 6 22 13 22 15 0 8 -5 6 -26 -11z"/>
<path d="M1605 230 c-13 -6 -15 -9 -5 -9 8 0 22 4 30 9 18 12 2 12 -25 0z"/>
<path d="M1518 203 c7 -3 16 -2 19 1 4 3 -2 6 -13 5 -11 0 -14 -3 -6 -6z"/>
<path d="M1058 193 c7 -3 16 -2 19 1 4 3 -2 6 -13 5 -11 0 -14 -3 -6 -6z"/>
<path d="M1425 190 l-40 -7 35 -1 c19 0 46 4 60 8 32 10 2 10 -55 0z"/>
<path d="M1103 183 c9 -2 25 -2 35 0 9 3 1 5 -18 5 -19 0 -27 -2 -17 -5z"/>
<path d="M1228 173 c23 -2 61 -2 85 0 23 2 4 4 -43 4 -47 0 -66 -2 -42 -4z"/>
</g>
</svg>
